<?xml version="1.0" encoding="UTF-8" standalone="no"?>
<!-- Created with Inkscape (http://www.inkscape.org/) -->

<svg
   xmlns:dc="http://purl.org/dc/elements/1.1/"
   xmlns:cc="http://creativecommons.org/ns#"
   xmlns:rdf="http://www.w3.org/1999/02/22-rdf-syntax-ns#"
   xmlns:svg="http://www.w3.org/2000/svg"
   xmlns="http://www.w3.org/2000/svg"
   xmlns:sodipodi="http://sodipodi.sourceforge.net/DTD/sodipodi-0.dtd"
   xmlns:inkscape="http://www.inkscape.org/namespaces/inkscape"
   width="404.41"
   height="99.800003"
   id="svg2"
   version="1.1"
   inkscape:version="0.48.1 r9760"
   sodipodi:docname="Documento nuevo 1">
  <defs
     id="defs4" />
  <sodipodi:namedview
     id="base"
     pagecolor="#ffffff"
     bordercolor="#666666"
     borderopacity="1.0"
     inkscape:pageopacity="0.0"
     inkscape:pageshadow="2"
     inkscape:zoom="1.979899"
     inkscape:cx="184.98447"
     inkscape:cy="78.286132"
     inkscape:document-units="px"
     inkscape:current-layer="layer1"
     showgrid="false"
     fit-margin-top="0"
     fit-margin-left="0"
     fit-margin-right="0"
     fit-margin-bottom="0"
     inkscape:window-width="1280"
     inkscape:window-height="712"
     inkscape:window-x="0"
     inkscape:window-y="0"
     inkscape:window-maximized="0" />
  <metadata
     id="metadata7">
    <rdf:RDF>
      <cc:Work
         rdf:about="">
        <dc:format>image/svg+xml</dc:format>
        <dc:type
           rdf:resource="http://purl.org/dc/dcmitype/StillImage" />
        <dc:title></dc:title>
      </cc:Work>
    </rdf:RDF>
  </metadata>
  <g
     inkscape:label="Capa 1"
     inkscape:groupmode="layer"
     id="layer1"
     transform="translate(-245.69169,-288.3089)">
    <path
       style="fill:#000000"
       d="m 341.89907,374.32428 c -2.54294,-2.4192 -2.48955,-2.81787 1.99074,-14.86719 4.44947,-11.9664 4.5273,-12.5331 2.32271,-16.91064 -2.87492,-5.7086 -0.13879,-6.3025 4.56789,-0.99152 3.74434,4.22509 4.23065,3.78104 5.30166,-4.84084 0.64266,-5.17367 1.50672,-6.75862 3.92961,-7.20811 7.8207,-1.45091 9.49644,10.93716 2.10456,15.55843 -3.60102,2.25131 -4.06733,3.24908 -3.09309,6.61843 0.67175,2.32328 2.28858,3.96747 3.90144,3.96747 1.51486,0 2.75428,0.7935 2.75428,1.76333 0,4.70214 -7.95566,0.83246 -9.55741,-4.64881 -2.10525,-7.2042 -5.90944,-5.11638 -9.87461,5.41946 -4.25362,11.30227 -4.2494,11.2547 -1.36516,15.40122 2.6523,3.81307 0.74536,4.28541 -2.98262,0.73877 z m 22.86535,-36.54673 c 0.55085,-2.74059 -1.49067,-5.0504 -4.46379,-5.0504 -1.17189,0 -2.67759,10.09104 -1.69622,11.36784 1.06636,1.3874 5.53184,-3.19219 6.16001,-6.31744 z m -14.31693,37.78548 c 1.68587,-0.42176 4.12542,-0.40575 5.42122,0.0356 1.29579,0.44135 -0.0836,0.78644 -3.06524,0.76687 -2.98168,-0.0196 -4.04187,-0.38068 -2.35598,-0.80245 z M 279.92382,365.1601 c -1.26241,-1.64247 0.5299,-18.63901 2.50394,-23.74477 0.9647,-2.49521 2.72938,-5.5899 3.92148,-6.87711 1.96597,-2.12283 1.89809,-2.71345 -0.73029,-6.35349 -1.59375,-2.20722 -2.46454,-4.92508 -1.93505,-6.03971 0.66531,-1.40059 1.75579,-0.91901 3.53026,1.55906 1.41215,1.9721 2.56757,4.04876 2.56757,4.61477 0,0.56601 1.16483,2.65582 2.58852,4.64404 2.41783,3.37651 3.08873,3.46928 10.17315,1.40656 4.17154,-1.21459 7.9611,-1.71851 8.42127,-1.11983 0.46016,0.5987 -0.45843,4.32123 -2.0413,8.27227 -4.04576,10.09867 -3.82856,13.05287 0.84913,11.54983 2.35193,-0.75574 3.22702,-0.58496 2.37178,0.46284 -0.74542,0.91324 -3.0325,2.17476 -5.0824,2.80334 -4.39897,1.34896 -4.58802,0.0681 -1.78102,-12.06673 l 1.94608,-8.413 -4.24702,1.10513 c -6.17385,1.60649 -10.48467,5.85344 -10.50756,10.35189 -0.0194,3.82251 -0.0676,3.8097 -1.8155,-0.48148 -1.19536,-2.93478 -1.37848,-5.49024 -0.54787,-7.64514 1.63009,-4.22901 0.3099,-5.81792 -2.40146,-2.89024 -3.20495,3.46062 -4.29205,6.94422 -5.35112,17.14783 -0.81151,7.81843 -0.62511,9.25744 1.19925,9.25744 1.18808,0 3.37992,-1.58699 4.87076,-3.52664 3.41229,-4.43955 4.56846,-4.5165 2.7869,-0.18547 -0.7559,1.83763 -3.30792,4.21813 -5.67114,5.28996 -5.05307,2.29181 -4.58808,2.21909 -5.61836,0.87865 z m 115.5679,-7.30563 c -0.003,-0.72737 1.6171,-6.29111 3.59832,-12.36384 1.98121,-6.07276 3.21512,-11.54497 2.74202,-12.16051 -0.47311,-0.61553 -3.41492,-0.40788 -6.53737,0.46142 -4.93993,1.37534 -5.74723,2.26756 -6.21664,6.87055 -1.23674,12.12755 -5.6594,18.05843 -11.93745,16.00839 -2.79047,-0.91121 -3.35953,-1.66986 -2.04524,-2.72667 1.0483,-0.84292 1.44403,-2.74214 0.93264,-4.47598 -1.15123,-3.90323 1.32354,-15.80561 4.01421,-19.30631 2.59719,-3.37905 6.9092,-3.51275 9.38546,-0.291 1.47772,1.92258 3.23538,2.05656 8.37386,0.6383 6.72944,-1.85738 14.70697,-2.0038 16.81515,-0.30863 2.14792,1.72712 1.28959,7.16938 -2.17974,13.82078 -1.86354,3.5728 -3.38827,6.90313 -3.38827,7.40074 0,0.49761 2.48862,0.66074 5.53025,0.36252 5.51006,-0.54024 5.54098,-0.58397 8.47066,-11.984 1.78294,-6.93775 4.00745,-12.1622 5.65103,-13.27189 1.49085,-1.00658 4.79967,-4.43939 7.35297,-7.6285 6.9572,-8.68966 11.63795,-11.13371 23.31752,-12.17525 l 10.60231,-0.94548 5.45324,7.09495 c 3.65759,4.75869 5.50266,8.76 5.60327,12.15152 0.48893,16.47964 -1.62123,22.94676 -8.34211,25.5666 -7.3922,2.88149 -9.87179,1.1853 -8.71437,-5.96115 0.51059,-3.15275 1.474,-6.48608 2.14088,-7.40741 2.39365,-3.30694 1.12828,-4.70014 -3.78019,-4.16208 -4.11,0.45052 -5.16306,1.38266 -5.95616,5.27228 -1.4643,7.18144 -6.98566,20.84314 -8.42372,20.84314 -0.70023,0 -0.96759,-1.5202 -0.59414,-3.37819 0.62353,-3.10223 0.0849,-3.29843 -6.59311,-2.4017 -4.85636,0.65211 -7.95587,0.23819 -9.33042,-1.24601 -1.53418,-1.65659 -2.52545,-1.71813 -3.89281,-0.24168 -1.00898,1.08947 -3.29606,1.89537 -5.0824,1.79088 -1.78636,-0.10457 -6.14487,0.39941 -9.6856,1.11972 -7.67627,1.56165 -8.32012,-0.63033 -3.2625,-11.10712 1.74639,-3.61757 2.91533,-7.56928 2.59768,-8.78156 -0.81867,-3.12441 -5.77289,-2.74609 -5.77289,0.44083 0,1.45474 -0.46797,2.64498 -1.03994,2.64498 -0.57196,0 -2.49341,4.76097 -4.26989,10.57992 -1.77648,5.81896 -3.74806,10.57993 -4.38128,10.57993 -0.63325,0 -1.15308,-0.59512 -1.15523,-1.32249 z m -11.65216,-6.26506 c 1.99316,-1.89621 2.2483,-3.7445 1.46045,-10.57993 -0.56004,-4.859 -1.66479,-8.28233 -2.6728,-8.28233 -2.0323,0 -5.10215,14.38947 -3.92286,18.38783 0.99449,3.37177 1.99275,3.46399 5.13521,0.47443 z m 64.59724,-3.10925 c 2.25946,-1.51115 5.80176,-14.03651 4.42975,-15.66335 -0.45054,-0.53423 -1.09144,0.0206 -1.42422,1.23283 -0.66668,2.42866 -8.511,3.09583 -8.511,0.72386 0,-1.7726 6.07996,-5.57299 8.91581,-5.57299 1.10644,0 2.36277,-1.19024 2.79183,-2.64498 0.42908,-1.45474 1.62969,-2.64498 2.66808,-2.64498 1.03837,0 1.88795,1.19024 1.88795,2.64498 0,3.05234 8.77223,3.81321 10.1648,0.88166 0.4607,-0.96983 2.32636,-1.76332 4.14591,-1.76332 4.56832,0 4.24125,-4.34738 -0.82271,-10.93587 -4.12505,-5.36688 -4.14683,-5.37282 -15.12736,-4.12663 -10.82772,1.22886 -15.65738,3.66907 -20.24521,10.22897 -2.59448,3.70971 -1.84227,10.35561 1.01088,8.93115 2.65416,-1.32512 2.36939,1.89758 -0.90578,10.25014 -3.78201,9.64512 -2.76179,12.61476 3.80396,11.07251 2.80506,-0.6589 6.05284,-1.83519 7.21731,-2.61398 z m -19.05214,-3.82492 c 1.55244,-2.16799 2.20992,-4.20753 1.46106,-4.53228 -0.76332,-0.33105 -1.01125,-3.05409 -0.56427,-6.1973 0.70783,-4.9775 0.57002,-5.30994 -1.22769,-2.96183 -2.35162,3.07154 -5.36588,17.6332 -3.65009,17.6332 0.63711,0 2.42856,-1.77381 3.98099,-3.94179 z m 45.35236,1.10216 c 1.88524,-2.45278 2.17061,-8.82847 0.80594,-18.00534 -0.0463,-0.31172 -0.92003,0.52057 -1.9415,1.84955 -2.56301,3.3346 -6.27461,12.95455 -6.27461,16.26288 0,3.58276 4.62549,3.51592 7.41017,-0.10704 z m -106.68636,10.48842 c 0.93178,-0.48916 2.45649,-0.48916 3.38827,0 0.93177,0.48917 0.16941,0.8894 -1.69414,0.8894 -1.86355,0 -2.6259,-0.40023 -1.69413,-0.8894 z m 192.12546,-2.40312 c 0.47911,-1.96402 0.36775,-3.39556 -0.24749,-3.18121 -1.46367,0.50997 -16.59993,-2.12286 -18.95007,-3.29619 -1.00128,-0.4999 -1.82049,-2.28801 -1.82049,-3.97359 0,-2.9205 -3.94188,-8.90124 -5.86677,-8.90124 -0.50036,0 -0.91204,1.78536 -0.91482,3.96747 -0.0135,10.48849 -9.04657,19.5071 -15.22772,15.20317 -3.50484,-2.44043 -2.92544,-8.07033 1.82101,-17.69377 3.40658,-6.90689 4.93882,-8.53015 8.05184,-8.53015 5.57737,0 6.19453,-3.08193 1.80961,-9.03667 l -3.84641,-5.22345 -12.90415,1.17871 c -7.09725,0.64829 -15.19787,2.18001 -18.00135,3.40383 -2.80348,1.2238 -5.40545,1.57625 -5.78215,0.78321 -0.95281,-2.00578 0.0932,-2.59058 10.87938,-6.08238 10.43235,-3.37727 27.73621,-2.83974 31.26563,0.97122 1.08,1.16617 2.33923,5.17625 2.79828,8.91128 0.45906,3.73504 1.73917,7.76765 2.84468,8.96137 1.65437,1.78635 2.48379,1.32423 4.68749,-2.61169 2.02056,-3.60883 3.82858,-4.78207 7.3694,-4.78207 4.6765,0 4.689,0.0217 3.8019,6.61245 -0.89475,6.64738 -3.65114,11.02075 -6.94601,11.02075 -2.61131,0 -2.1593,3.14703 0.59787,4.16258 1.30448,0.48049 6.13405,1.39789 10.73238,2.03867 7.96592,1.11006 8.46986,0.94808 10.67538,-3.43128 2.25062,-4.46898 2.21611,-4.71532 -1.24524,-8.88892 -4.12511,-4.97394 -4.35882,-6.69642 -1.42636,-10.5117 1.94134,-2.5258 1.94134,-2.87203 0,-3.84125 -3.26633,-1.63074 -2.55183,-5.35036 1.80264,-9.38448 4.27836,-3.96358 11.58871,-4.86493 13.13062,-1.61898 0.57413,1.20863 -1.99401,5.45102 -6.35772,10.5025 l -7.32093,8.47476 3.60479,4.72738 3.6048,4.72735 2.83289,-7.22466 c 1.55811,-3.97357 2.83292,-8.65242 2.83292,-10.3974 0,-3.23079 4.51896,-8.13383 5.87299,-6.37214 0.40921,0.53238 0.0175,2.49363 -0.87036,4.35831 -2.16015,4.53658 0.62955,6.82927 6.73999,5.53915 2.48658,-0.52499 4.52106,-0.21825 4.52106,0.68165 0,0.89989 -2.43955,4.73548 -5.42123,8.52352 -6.43541,8.17581 -6.88509,11.46158 -1.56859,11.46158 2.91922,0 5.13568,-1.98278 9.14832,-8.18378 2.91262,-4.50109 5.48649,-9.06368 5.71968,-10.13909 0.2332,-1.07543 -0.88497,0.2268 -2.48483,2.89382 -3.15127,5.2533 -5.39335,6.26844 -5.39335,2.44195 0,-3.62784 4.98895,-11.14099 8.10102,-12.19982 1.75131,-0.59586 2.41866,-0.24665 1.8433,0.96454 -0.56471,1.18883 -0.0845,1.4905 1.28443,0.80702 1.61294,-0.80527 1.96495,-0.34117 1.34234,1.76979 -0.61673,2.09104 -0.26878,2.57415 1.29259,1.79462 1.17509,-0.58667 3.26218,0.004 4.63798,1.31309 2.41943,2.30172 2.40963,2.54352 -0.29861,7.37301 -4.77228,8.51016 -4.99934,11.07933 -1.1476,12.98462 1.89783,0.93879 3.67847,1.70687 3.95699,1.70687 0.27849,0 0.91863,-3.57675 1.4225,-7.94836 0.66461,-5.76623 2.01825,-9.15491 4.9306,-12.34324 4.20977,-4.60869 6.51711,-5.55996 6.51711,-2.6869 0,0.93938 0.9226,1.24736 2.05022,0.68438 3.30316,-1.64914 6.28729,2.62947 4.63515,6.64583 -0.76421,1.85787 -0.96211,4.27763 -0.43976,5.37727 0.55102,1.15996 0.34827,1.51568 -0.48295,0.84729 -0.80894,-0.65045 -2.05762,1.18037 -2.8681,4.20519 -1.29724,4.84158 -1.12695,5.50977 1.76928,6.94242 3.35122,1.65771 5.58324,4.92848 4.40732,6.45841 -0.37809,0.49189 -2.4213,-0.25852 -4.54046,-1.66759 -2.11918,-1.40907 -8.17623,-3.03031 -13.46012,-3.60273 -15.45506,-1.67429 -17.30958,-3.8536 -11.97348,-14.07045 3.91218,-7.49055 4.03943,-8.47292 0.91214,-7.04255 -3.51609,1.60819 -9.92873,9.69696 -11.28414,14.23356 -0.9902,3.31425 -2.20969,3.96747 -7.40688,3.96747 -3.42184,0 -7.44273,-0.85032 -8.9353,-1.88961 -2.61256,-1.81913 -2.62592,-2.0641 -0.35811,-6.56718 1.29563,-2.57267 3.49739,-6.27198 4.89282,-8.22069 2.49458,-3.48374 2.47552,-3.56455 -1.13823,-4.82198 -3.51079,-1.22159 -7.10864,1.85711 -7.23793,6.19352 -0.0237,0.7951 -1.86816,4.89682 -4.09878,9.11494 -2.82296,5.33826 -3.54385,7.93829 -2.37178,8.55428 0.92613,0.48672 0.38632,0.94759 -1.19961,1.02415 -1.58591,0.0765 -3.64273,1.32946 -4.57069,2.78419 -2.56425,4.01992 -5.78554,3.38967 -4.73277,-0.92595 z m -32.73063,-5.6865 c 1.04663,-2.18211 2.28167,-6.0956 2.74454,-8.69666 0.66385,-3.73051 0.27116,-4.96475 -1.8596,-5.84461 -1.48564,-0.61348 -3.24235,-0.68026 -3.90379,-0.14847 -2.12507,1.70874 -5.84039,13.52914 -5.07166,16.13556 1.13857,3.86026 5.95863,2.99883 8.09051,-1.44591 z m 99.87255,-7.05328 c 1.01982,-4.12176 2.48969,-8.07708 3.26636,-8.78961 0.80832,-0.74152 0.29873,-1.30702 -1.19174,-1.32249 -1.43215,-0.0141 -3.71923,1.28622 -5.0824,2.89129 -3.44072,4.05121 -3.26602,14.71492 0.24107,14.71492 0.50186,0 1.74688,-3.37235 2.76671,-7.49411 z m -80.01314,-6.6489 c 1.88577,-4.58437 0.45743,-7.95876 -2.16861,-5.12322 -2.16046,2.3328 -2.60275,8.68631 -0.60468,8.68631 0.7192,0 1.96718,-1.60339 2.77329,-3.56309 z m 27.05691,-20.18808 c 2.67592,-4.19496 0.8974,-4.97852 -4.56285,-2.01026 -4.97731,2.70573 -6.24943,5.43687 -3.19594,6.86135 2.06343,0.96261 5.36844,-1.1038 7.75879,-4.85109 z M 327.7303,351.04759 c 0,-0.76428 1.97053,-3.91898 4.37894,-7.01045 2.40842,-3.09145 7.21614,-12.65373 10.68382,-21.24949 5.71114,-14.15688 6.77563,-15.78537 11.30362,-17.29282 3.918,-1.30436 5.26421,-1.11373 6.22657,0.88166 2.85205,5.91354 -1.9001,14.50074 -11.13335,20.11815 -3.4783,2.11616 -8.02116,6.4714 -10.09521,9.67834 -3.67656,5.68475 -3.69212,5.7982 -0.62145,4.5302 2.15958,-0.89177 2.85807,-0.68694 2.22221,0.65167 -0.51005,1.07372 -1.75941,1.95222 -2.77635,1.95222 -1.01694,0 -3.72545,2.05427 -6.0189,4.56504 -2.29343,2.5108 -4.1699,3.93974 -4.1699,3.17548 z m 27.69586,-31.59377 c 5.82302,-7.02122 4.16494,-15.11601 -2.31002,-11.27767 -2.5795,1.52914 -9.12216,14.67935 -9.12216,18.33482 0,1.84216 8.30173,-3.28255 11.43218,-7.05715 z m 131.5242,25.17574 c -0.51938,-4.12176 -1.83249,-8.80394 -2.91803,-10.40486 -1.21953,-1.79853 -1.45787,-3.32553 -0.62375,-3.99623 0.74246,-0.59702 1.73303,-0.27905 2.20123,0.7066 1.39582,2.9384 4.14013,2.0589 7.96452,-2.55243 4.27572,-5.15554 7.57605,-4.1682 7.78518,2.32902 0.48463,15.05487 -2.14933,21.41201 -8.87162,21.41201 -4.3521,0 -4.64277,-0.39338 -5.53753,-7.49411 z m 9.97566,-0.52379 c 2.26774,-6.47552 1.97492,-7.85198 -1.6704,-7.85198 -3.63566,0 -5.06903,3.12959 -3.96014,8.64653 1.01189,5.03442 3.72322,4.65182 5.63054,-0.79455 z m 0.89521,-11.37862 c 0.4607,-0.96983 -0.41814,-1.76332 -1.95297,-1.76332 -1.53483,0 -2.7906,0.79349 -2.7906,1.76332 0,0.96982 0.87883,1.76332 1.95297,1.76332 1.07414,0 2.32991,-0.7935 2.7906,-1.76332 z m -238.99756,14.10656 c 0,-2.42456 0.30762,-3.41643 0.6836,-2.20415 0.37598,1.21228 0.37598,3.19602 0,4.4083 -0.37598,1.21229 -0.6836,0.22042 -0.6836,-2.20415 z m 1.24832,-8.98413 c -0.11926,-5.09794 2.7656,-9.23897 8.36615,-12.00934 5.06503,-2.50545 4.83663,0.75821 -0.29468,4.21056 -2.62111,1.76348 -3.74933,3.61942 -3.24326,5.33524 0.47872,1.6231 -0.015,2.63107 -1.28901,2.63107 -1.13575,0 -2.37263,0.99187 -2.74861,2.20415 -0.37598,1.21228 -0.73174,0.14495 -0.79059,-2.37168 z m 51.05581,-21.13925 c -2.52671,-3.60048 -3.11383,-6.90635 -1.22654,-6.90635 1.6278,0 5.63128,6.05336 5.63128,8.51462 0,2.92446 -1.64538,2.3237 -4.40474,-1.60827 z m 320.52701,0.45435 c -1.22067,-1.00835 -0.57026,-2.48577 2.31689,-5.26296 4.85242,-4.66758 5.61981,-4.79557 4.6482,-0.77525 -0.64178,2.65558 -0.44883,2.61206 1.38384,-0.31211 1.17128,-1.86885 2.56394,-2.83281 3.09482,-2.14211 1.19246,1.55145 -5.58091,9.95849 -7.99342,9.92134 -0.96431,-0.0141 -2.51696,-0.65786 -3.45033,-1.42891 z m -37.30748,-4.21287 c -2.07767,-1.9766 -2.16583,-2.91583 -0.66863,-7.12327 1.6132,-4.53346 5.8352,-8.01576 7.34185,-6.05552 0.36819,0.47902 0.08,2.33682 -0.64042,4.12846 -0.72042,1.79164 -1.83403,5.07318 -2.47471,7.29233 -1.00697,3.4879 -1.48925,3.7262 -3.55809,1.758 z"
       id="path3115"
       inkscape:connector-curvature="0" />
    <path
       style="fill:none;stroke:#000000;stroke-width:1.54591048px;stroke-linecap:butt;stroke-linejoin:miter;stroke-opacity:1"
       d="m 364.04084,357.77769 c 0.86873,-0.79658 1.98583,0.3983 2.90423,0 1.79439,-0.77819 -0.59002,-0.62975 0.96809,-0.62975 0.11736,0 1.43653,0.0203 1.45209,0 0.11413,-0.14847 -0.14429,-0.53587 0,-0.62975 0.28863,-0.18776 0.6454,0 0.96809,0 0.16135,0 0.36994,0.14847 0.48403,0 0.11412,-0.14848 0,-0.41985 0,-0.62977 0.32269,0 0.67945,0.18775 0.96808,0 0.14431,-0.0938 -0.14431,-0.53588 0,-0.62976 0.28863,-0.18775 0.66194,0.13278 0.96806,0 0.21648,-0.0938 0.27996,-0.49699 0.48406,-0.62975 0.28862,-0.18776 0.73988,0.29687 0.96806,0 0.11412,-0.14847 -0.11411,-0.48131 0,-0.62975 0.11412,-0.14847 0.32271,0 0.48405,0 0.16134,0 0.32269,0 0.48403,0 0.16136,0 0.36995,0.14847 0.48404,0 0.11412,-0.14847 -0.16135,-0.62977 0,-0.62977 0.71221,0 -1.12131,2.08865 0.48404,0"
       id="path3117"
       inkscape:connector-curvature="0" />
    <path
       style="fill:none;stroke:#000000;stroke-width:1.54591048px;stroke-linecap:butt;stroke-linejoin:miter;stroke-opacity:1"
       d="m 338.87086,341.40401 c 0.6454,-0.62975 1.45212,-2.72895 1.93617,-1.88928 0.48403,0.83968 -2.5066,2.63146 -1.93617,1.88928 0.73054,-0.95045 1.56059,-1.77344 2.4202,-2.51903 0.13417,-0.11638 0.48403,-0.20992 0.48403,0 0,0.20992 -0.64538,0 -0.48403,0 0.80673,0 1.61346,0 2.42018,0 0.3227,0 0.64539,0 0.96809,0 0.16135,0 0.48403,-0.20992 0.48403,0 0,0.20992 -0.64538,0 -0.48403,0 0.32268,0 0.64538,0 0.96807,0"
       id="path3119"
       inkscape:connector-curvature="0" />
    <path
       style="fill:#000000"
       id="path3139"
       d="m 480.31986,323.83217 c 0.0836,0.42614 0.22629,0.82257 0.38581,1.20803 0.29991,0.67267 0.62908,1.32115 0.96063,1.96778 0.35076,0.64567 0.75444,1.2324 1.18522,1.78804 0.45449,0.54247 0.91013,1.08432 1.3946,1.58147 0.44505,0.43358 0.92964,0.7891 1.43226,1.09532 0.35989,0.23094 0.18075,0.1192 0.53727,0.33542 0.1236,0.11585 -1.13488,2.39013 -1.2585,2.27435 l 0,0 c -0.38081,-0.23962 -0.19193,-0.11938 -0.56669,-0.36057 -0.60504,-0.41293 -1.1915,-0.87388 -1.72409,-1.43381 -0.52957,-0.56727 -1.04585,-1.15687 -1.53415,-1.78412 -0.49842,-0.6756 -0.96786,-1.38643 -1.37038,-2.16474 -0.37286,-0.73134 -0.73793,-1.47102 -1.04358,-2.2546 -0.21461,-0.60822 -0.40616,-1.23577 -0.47072,-1.90494 -0.0188,-0.19065 2.05343,-0.53828 2.07232,-0.34763 z"
       inkscape:connector-curvature="0" />
    <path
       style="fill:none;stroke:#000000;stroke-width:1.54591048px;stroke-linecap:butt;stroke-linejoin:miter;stroke-opacity:1"
       d="m 345.44089,375.07567 c 1.59724,0 3.19448,0 4.79172,0 0.22818,0 0.48044,-0.13278 0.68454,0 0.28863,0.18776 0.41604,0.65772 0.68453,0.8906 0.0949,0.0824 0.22817,0 0.34227,0 0.57044,0 1.14088,0 1.71132,0 0.11413,0 0.22819,0 0.34228,0 0.11411,0 0.24022,-0.0663 0.34227,0 0.14431,0.0938 0.19795,0.35143 0.34226,0.44531 0.10208,0.0663 0.22817,0 0.34226,0 0.11411,0 0.22817,0 0.34227,0 0.91272,0 1.82542,0 2.73814,0 0.34226,0 0.70209,-0.14089 1.02679,0 1.26882,0.55026 -0.4172,0.44531 0.68454,0.44531 0.9127,0 1.82542,0 2.73812,0 0.11412,0 0.22818,0 0.34228,0 0.11411,0 0.2616,0.10492 0.34226,0 0.0806,-0.10492 0,-0.29687 0,-0.44531"
       id="path3143"
       inkscape:connector-curvature="0" />
    <path
       style="fill:#000000"
       id="path3153"
       d="m 307.85597,353.33629 c 0.34836,-0.19992 0.71081,-0.35187 1.06794,-0.52212 0.49732,-0.24898 1.01458,-0.41693 1.52549,-0.60986 0.59305,-0.22713 1.19873,-0.38832 1.80708,-0.52734 0.63424,-0.15341 1.2677,-0.31047 1.9048,-0.44284 0.65761,-0.1222 1.31671,-0.22731 1.97378,-0.3549 0.68095,-0.13754 1.36525,-0.24265 2.05057,-0.33516 0.72514,-0.0922 1.45252,-0.14864 2.17997,-0.19867 0.71564,-0.0476 1.43182,-0.0785 2.14806,-0.10527 0.69153,-0.005 1.38083,-0.0658 2.0699,-0.13542 0.62476,-0.0236 1.2292,-0.21294 1.8284,-0.42667 0.60253,-0.21434 1.19873,-0.45806 1.79446,-0.7021 0.60421,-0.2329 1.20835,-0.46263 1.80115,-0.74152 0.096,-0.0455 0.19204,-0.0908 0.28807,-0.13612 0.0868,-0.0682 0.82852,1.53075 0.74162,1.59897 l 0,0 c -0.0939,0.0441 -0.18783,0.088 -0.28174,0.13208 -0.60829,0.29683 -1.22202,0.56914 -1.85051,0.78577 -0.60844,0.24669 -1.21697,0.49408 -1.82945,0.72252 -0.66901,0.24662 -1.34082,0.51651 -2.0409,0.55395 -0.70861,0.0735 -1.41704,0.15975 -2.12859,0.15975 -0.70711,0.0249 -1.41419,0.0534 -2.1208,0.097 -0.71049,0.0453 -1.42086,0.097 -2.12978,0.17439 -0.66593,0.0748 -1.33012,0.17386 -1.99126,0.30248 -0.6555,0.12696 -1.31084,0.24942 -1.9691,0.34975 -0.63372,0.12202 -1.26439,0.2666 -1.89244,0.43103 -0.56849,0.11602 -1.13526,0.2499 -1.69109,0.44633 -0.48622,0.17228 -0.97454,0.33745 -1.45311,0.54354 -0.36994,0.17263 -0.74435,0.32433 -1.11264,0.50225 -0.0848,0.0635 -0.77477,-1.49835 -0.68988,-1.56183 z"
       inkscape:connector-curvature="0" />
    <path
       style="fill:#000000"
       id="path3155"
       d="m 270.82198,325.32591 c 0.31283,-0.25401 0.63429,-0.48964 0.95736,-0.72086 0.47385,-0.33242 0.93489,-0.69694 1.39403,-1.06267 0.5509,-0.46768 1.11881,-0.89822 1.69491,-1.31073 0.59591,-0.46502 1.22687,-0.83831 1.86401,-1.19488 0.61601,-0.36483 1.25253,-0.66105 1.90017,-0.9141 0.64909,-0.24687 1.31414,-0.40825 1.98102,-0.54744 0.78443,-0.18656 1.5741,-0.22925 2.36916,-0.22389 0.67836,0.067 1.32627,0.32323 1.93954,0.69575 0.54957,0.3919 1.0837,0.81706 1.57798,1.31898 0.5027,0.53055 0.90549,1.17878 1.25407,1.88297 0.36905,0.68073 0.61558,1.44869 0.8636,2.21115 0.24867,0.80144 0.46428,1.62028 0.66985,2.44198 0.0332,0.14248 0.0664,0.28506 0.0996,0.42759 0.0251,0.12855 -1.37241,0.58941 -1.39746,0.46085 l 0,0 c -0.0312,-0.13243 -0.0622,-0.26493 -0.0934,-0.39739 -0.19606,-0.77979 -0.39834,-1.55828 -0.63636,-2.31829 -0.21813,-0.67685 -0.44154,-1.35375 -0.77185,-1.95423 -0.28097,-0.54739 -0.60665,-1.04971 -1.01106,-1.45153 -0.43045,-0.40856 -0.88599,-0.77516 -1.36361,-1.08319 -0.48148,-0.25336 -0.98661,-0.42122 -1.50889,-0.43378 0.0299,-0.004 0.11967,-0.009 0.0897,-0.009 -0.41326,2.2e-4 -0.82173,0.055 -1.23134,0.12062 -0.10568,0.0176 -0.21127,0.0358 -0.31693,0.0536 -0.61813,0.11638 -1.2352,0.25043 -1.83928,0.46063 -0.60181,0.21634 -1.19476,0.47218 -1.76332,0.81087 -0.60259,0.34772 -1.22064,0.65761 -1.78136,1.11616 -0.55722,0.38618 -1.10556,0.79242 -1.63873,1.23268 -0.47448,0.4009 -0.972,0.76361 -1.46519,1.12223 -0.33833,0.23211 -0.67997,0.45561 -1.00803,0.7114 -0.0786,0.0762 -0.90681,-1.3688 -0.82829,-1.44499 z"
       inkscape:connector-curvature="0" />
    <path
       style="fill:#000000"
       id="path3157"
       d="m 284.03621,324.98968 c -0.31947,-0.26191 -0.64241,-0.50563 -0.98739,-0.70706 -0.42813,-0.2306 -0.89391,-0.33579 -1.3539,-0.38662 -0.53041,-0.0406 -1.0621,-0.0365 -1.59321,-0.0363 -0.38051,-0.009 -0.888,0.0124 -1.41789,0.0575 -0.62799,0.0515 -1.25231,0.16205 -1.87451,0.28141 -0.61802,0.11161 -1.21249,0.36973 -1.80518,0.61441 -0.0886,0.0652 -0.79854,-1.56585 -0.7099,-1.63116 l 0,0 c 0.64836,-0.28002 1.3033,-0.5652 1.97611,-0.72247 0.65411,-0.14318 1.31456,-0.25138 1.9754,-0.32357 0.7384,-0.07 1.47597,-0.11338 2.21693,-0.0793 0.57635,0.007 1.15451,0.009 1.72772,0.097 0.58509,0.11621 1.16803,0.28307 1.69872,0.63746 0.33659,0.22763 0.65578,0.48865 0.9754,0.75375 0.0785,0.0762 -0.74976,1.5212 -0.8283,1.44499 z"
       inkscape:connector-curvature="0" />
    <path
       style="fill:#000000"
       id="path3159"
       d="m 284.62243,323.84678 c -0.47164,-0.0141 -0.9386,-0.10015 -1.40823,-0.15164 -0.40652,-0.04 -0.80815,-0.14142 -1.21157,-0.21684 -0.0936,-0.0481 0.42898,-1.77127 0.52262,-1.7232 l 0,0 c 0.38362,0.0772 0.76681,0.15993 1.15418,0.19908 0.1091,0.0159 1.43868,0.21133 0.59887,0.14882 0.0948,-0.0317 0.4389,1.71211 0.34413,1.74377 z"
       inkscape:connector-curvature="0" />
    <path
       style="fill:#000000"
       id="path3161"
       d="m 282.47592,322.45711 c -0.3603,-0.0435 -0.72072,-0.0841 -1.08164,-0.11814 -0.16413,-0.0141 -0.30229,-0.0337 -0.46613,-0.0182 -0.0363,0.004 0.0727,0.005 0.1091,0.007 -0.0976,0.0331 -0.45849,-1.7627 -0.36088,-1.79589 l 0,0 c 0.39041,0.002 0.78093,-0.007 1.16938,0.0525 0.38711,0.0496 0.77581,0.0987 1.15645,0.20634 0.0905,0.0485 -0.43571,1.71377 -0.52623,1.66535 z"
       inkscape:connector-curvature="0" />
    <path
       style="fill:#000000"
       id="path3163"
       d="m 282.9111,322.51087 c -0.3712,0.0206 -0.74291,0.0205 -1.1144,0.0236 -0.25997,0.002 -0.51995,0.004 -0.77993,0.004 -0.0978,0.0326 -0.45299,-1.76702 -0.35517,-1.7997 l 0,0 c 0.26056,0.001 0.52112,0.002 0.78169,0.004 0.37456,0.004 0.74938,0.004 1.12368,0.0236 0.0948,-0.0317 0.4389,1.71213 0.34413,1.74378 z"
       inkscape:connector-curvature="0" />
    <path
       style="fill:#000000"
       id="path3165"
       d="m 283.27168,323.08722 c -0.31535,-0.17457 -0.63536,-0.33147 -0.96313,-0.46434 -0.0871,-0.0659 0.63029,-1.66704 0.7173,-1.60106 l 0,0 c 0.44162,0.21089 0.89125,0.43706 1.25649,0.8338 0.067,0.0929 -0.94373,1.32458 -1.01066,1.2316 z"
       inkscape:connector-curvature="0" />
    <path
       style="fill:#000000"
       id="path3167"
       d="m 346.02229,375.0944 c 0.3743,-0.0205 0.74911,-0.0205 1.12369,-0.0236 0.54484,-0.004 1.08967,-0.005 1.63451,-0.007 0.61222,-0.002 1.22442,-0.002 1.83662,-0.004 0.62838,0.0513 1.25829,0.0929 1.88362,0.19012 0.63419,0.0903 1.2619,0.24586 1.88246,0.43665 0.60178,0.19866 1.2099,0.35949 1.8217,0.49548 0.60212,0.17901 1.20693,0.33968 1.81607,0.47251 0.61124,0.12996 1.2274,0.21315 1.84398,0.28547 0.64403,0.0728 1.28961,0.11832 1.93528,0.15799 0.66309,0.0393 1.3266,0.064 1.99015,0.0855 0.56402,0.0205 0.86125,0.0346 1.45146,-0.0568 0.22656,-0.0425 0.44295,-0.13718 0.65841,-0.23339 0.0855,-0.0697 0.8422,1.50302 0.75673,1.57264 l 0,0 c -0.2863,0.15429 -0.57509,0.29417 -0.87729,0.38875 -0.78529,0.19566 -1.58219,0.17743 -2.37905,0.13596 -0.67268,-0.0245 -1.34531,-0.0525 -2.0174,-0.0973 -0.663,-0.0458 -1.32587,-0.0984 -1.98678,-0.18234 -0.64601,-0.0848 -1.2913,-0.18327 -1.93073,-0.33214 -0.60917,-0.14407 -1.21355,-0.31729 -1.82102,-0.47233 -0.62715,-0.15182 -1.24965,-0.33104 -1.86951,-0.52725 -0.57997,-0.15993 -1.16383,-0.29451 -1.75451,-0.36793 -0.58552,-0.0705 -1.17301,-0.12996 -1.76118,-0.13948 -0.61177,-8.1e-4 -1.22353,-0.002 -1.83529,-0.004 -0.54389,-0.002 -1.08778,-0.004 -1.63166,-0.007 -0.37147,-0.004 -0.7432,-0.004 -1.11439,-0.0236 -0.0948,-0.0317 0.24936,-1.77543 0.34413,-1.74376 z"
       inkscape:connector-curvature="0" />
    <path
       style="fill:#000000"
       id="path3169"
       d="m 364.50468,356.39156 c 0.68193,-0.048 -0.23202,0.0268 0.69475,-0.0961 0.49424,-0.0598 0.9783,-0.20379 1.45865,-0.36104 0.54715,-0.2019 1.09856,-0.38183 1.64128,-0.60358 0.58113,-0.22548 1.14377,-0.51553 1.70806,-0.80184 0.58092,-0.29287 1.14937,-0.62698 1.69892,-1.00855 0.55519,-0.3872 1.10232,-0.79386 1.64701,-1.20544 0.57894,-0.43439 1.16567,-0.85043 1.77222,-1.21583 0.57385,-0.34474 1.15424,-0.67045 1.7299,-1.00995 0.27509,-0.15835 0.5436,-0.33484 0.81218,-0.5108 0.081,-0.0795 0.94452,1.41249 0.86343,1.49192 l 0,0 c -0.28005,0.18586 -0.55617,0.38256 -0.84474,0.54572 -0.57558,0.35449 -1.16532,0.6677 -1.74022,1.02436 -0.57562,0.32445 -1.12645,0.70947 -1.67137,1.1131 -0.55436,0.42212 -1.11216,0.8365 -1.67604,1.2363 -0.5917,0.4236 -1.19952,0.80656 -1.82887,1.12745 -0.58618,0.2859 -1.16093,0.60958 -1.76348,0.83604 -0.55746,0.24364 -1.12452,0.43817 -1.6932,0.63166 -0.54096,0.20715 -1.09385,0.36742 -1.65358,0.45982 -0.49818,0.0552 -0.99836,0.1326 -1.49903,0.0906 -0.0948,-0.0316 0.24935,-1.77543 0.34413,-1.74376 z"
       inkscape:connector-curvature="0" />
    <path
       style="fill:#000000"
       id="path3171"
       d="m 259.18239,346.04353 c -0.0164,-0.48493 -0.0162,-0.97062 -0.0187,-1.45592 -0.003,-0.70824 -0.004,-1.41649 -0.005,-2.12473 -0.0109,-0.82218 0.01,-1.64518 0.0978,-2.45971 0.0966,-0.90726 0.36141,-1.75152 0.64704,-2.58065 0.3218,-0.87143 0.77434,-1.64165 1.24287,-2.386 0.30179,-0.4587 0.62201,-0.8945 0.95492,-1.31474 0.064,-0.10297 1.18339,1.07452 1.1194,1.17751 l 0,0 c -0.30512,0.3705 -0.5905,0.76391 -0.8682,1.16933 -0.40698,0.62907 -0.7998,1.28151 -1.09682,2.01045 -0.24393,0.69315 -0.49149,1.38975 -0.57403,2.15289 -0.0885,0.73734 -0.094,1.48588 -0.0904,2.23092 -0.001,0.70824 -0.003,1.41649 -0.005,2.12473 -0.003,0.4853 -0.003,0.97099 -0.0187,1.45592 0,0.12731 -1.38375,0.12731 -1.38375,0 z"
       inkscape:connector-curvature="0" />
    <path
       style="fill:#000000"
       id="path3173"
       d="m 290.6709,355.84026 c -0.0165,-0.4898 -0.0156,-0.98032 -0.0199,-1.47047 -0.005,-0.76232 -0.005,-1.52467 -0.006,-2.28701 -9.8e-4,-0.83671 -10e-4,-1.67342 -10e-4,-2.51014 0.0249,-0.81299 -0.0108,-1.61603 -0.0935,-2.42112 -0.0967,-0.73683 -0.25095,-1.45949 -0.42403,-2.17152 -0.028,-0.10474 -0.0561,-0.2096 -0.0843,-0.3144 -0.0285,-0.12625 1.34361,-0.64996 1.37206,-0.52374 l 0,0 c 0.0336,0.12238 0.0672,0.24477 0.10081,0.36714 0.19077,0.79886 0.36059,1.60865 0.4648,2.43504 0.0889,0.87376 0.13215,1.74655 0.10472,2.6286 -3.8e-4,0.83672 -8.1e-4,1.67343 -0.001,2.51014 -10e-4,0.76234 -10e-4,1.52469 -0.006,2.28701 -0.004,0.49015 -0.004,0.98067 -0.0199,1.47047 0,0.12731 -1.38375,0.12731 -1.38375,0 z"
       inkscape:connector-curvature="0" />
    <path
       style="fill:#000000"
       d=""
       id="path3177"
       inkscape:connector-curvature="0" />
    <path
       style="fill:#000000"
       d="m 355.80795,377.69385 c -1.69422,-0.45362 -4.5436,-0.84571 -6.33194,-0.87131 -3.63845,-0.052 -4.94973,-0.52291 -7.28932,-2.61719 -2.55504,-2.28712 -2.52991,-2.43714 2.97115,-17.74336 1.25043,-3.47926 2.37276,-7.26798 2.49406,-8.41938 0.19667,-1.86681 0.0757,-2.4471 -1.11683,-5.35958 l -1.3374,-3.26609 -1.73391,-0.004 c -1.54051,-0.004 -1.84786,0.16364 -2.75541,1.49738 -0.69654,1.02359 -1.62032,1.72763 -2.90388,2.21311 -1.8623,0.70436 -6.50055,4.54954 -7.06178,5.85431 -0.59055,1.37292 -4.17868,2.53781 -8.99027,2.91868 -5.5729,0.44113 -9.46674,1.19719 -10.44035,2.02719 -1.20875,1.03045 -4.65118,2.40718 -6.01896,2.40718 -1.5071,0 -1.88314,-0.86285 -1.52089,-3.48983 0.20867,-1.51337 3.08013,-14.9663 3.49392,-16.36924 0.27019,-0.91611 -0.9864,-0.7986 -4.75276,0.44443 -5.13995,1.69639 -8.21591,4.0877 -9.51296,7.39554 -0.45703,1.16551 -0.72745,3.10814 -0.89108,6.40093 -0.17521,3.526 -0.35259,4.72757 -0.69792,4.72757 -0.3414,0 -0.46833,-0.78939 -0.48337,-3.00581 -0.0108,-1.6532 -0.16927,-4.00777 -0.35121,-5.23236 -0.71613,-4.82014 -0.75117,-6.38653 -0.18412,-8.23042 0.30565,-0.99384 0.55572,-2.31018 0.55572,-2.92521 0,-4.04825 -5.25444,0.85878 -6.86858,6.41443 -0.86947,2.99259 -1.95551,10.44433 -2.2509,15.44438 -0.17896,3.02898 -0.12117,3.70638 0.37099,4.34668 0.32064,0.41718 0.84152,0.7541 1.1575,0.74872 1.1392,-0.0194 3.55075,-1.78958 5.76005,-4.22813 1.23905,-1.36759 2.33264,-2.38268 2.43022,-2.25574 0.3936,0.51212 -0.77577,3.05834 -2.06286,4.49172 -1.51794,1.69046 -5.86507,4.21836 -7.84969,4.56469 -1.16292,0.20294 -1.31518,0.1058 -1.658,-1.05832 -0.71788,-2.43755 0.5255,-15.25629 2.01443,-20.76788 0.8008,-2.96434 2.3323,-6.02989 4.42862,-8.86467 1.20744,-1.63278 1.49274,-2.30033 1.33219,-3.11715 -0.18669,-0.94988 -1.60607,-3.46623 -3.8252,-6.7815 l -0.86283,-1.28904 -4.18757,0.2353 c -4.66474,0.2621 -4.00773,-0.0794 -10.27916,5.34168 -3.40345,2.94194 -4.08347,4.04165 -3.9369,6.36682 0.10218,1.62058 0.071,1.66757 -1.50619,2.27516 -2.08974,0.80501 -2.66783,1.92251 -2.66783,5.15716 0,1.94207 -0.12076,2.57276 -0.49275,2.57276 -0.29908,0 -0.54763,0.56879 -0.63242,1.44724 -0.0768,0.79599 -0.0698,-0.55662 0.0155,-3.0058 0.24416,-7.00002 1.55051,-11.65354 3.99586,-14.23414 1.79296,-1.89214 4.48686,-3.64299 6.82357,-4.43486 1.01713,-0.34468 2.51752,-1.1755 3.33422,-1.84627 2.42576,-1.99232 4.89257,-3.23596 7.22525,-3.64258 3.93782,-0.68642 5.56551,0.62672 7.9934,6.44864 2.8946,6.94105 4.95723,9.47249 7.71561,9.46931 0.8249,-9.3e-4 3.50206,-0.51446 5.94926,-1.14116 2.44721,-0.62671 5.29657,-1.177 6.33193,-1.22287 l 1.88247,-0.0834 -0.0487,1.42538 c -0.0267,0.78395 -1.01512,4.19055 -2.19638,7.5702 -2.32622,6.65544 -2.86329,9.73954 -1.88079,10.80042 0.48487,0.52355 0.83928,0.50204 2.42175,-0.14688 2.93386,-1.20325 7.13415,-2.05018 12.31432,-2.48302 6.62881,-0.55388 7.32601,-0.93417 10.55596,-5.75775 4.10044,-6.12359 6.93966,-11.78059 12.14084,-24.19003 4.62154,-11.02646 5.80964,-12.93445 8.95262,-14.3772 1.85935,-0.85351 4.81475,-1.3221 5.9665,-0.94602 1.92695,0.62924 2.53673,5.46065 1.14635,9.08274 -0.87674,2.284 -3.60409,6.05472 -5.79136,8.00694 -0.81531,0.72769 -2.86857,2.28712 -4.56278,3.4654 -3.75256,2.60981 -5.59347,4.17782 -8.00614,6.81933 -2.11472,2.31531 -5.51339,7.50744 -5.51339,8.42278 0,1.03809 2.0944,0.16998 3.3543,-1.39038 1.03874,-1.28643 1.34809,-1.41182 3.84753,-1.5595 3.14002,-0.18551 3.87708,0.18949 7.62337,3.87869 1.27841,1.25892 2.62032,2.28897 2.98201,2.28897 0.89977,0 1.49085,-1.71913 2.18194,-6.34603 0.81025,-5.42477 1.35551,-6.94001 2.77499,-7.71166 3.6845,-2.00295 7.69758,1.08831 7.69758,5.9294 0,3.7084 -1.69492,6.66999 -5.21371,9.11011 -2.4885,1.72565 -3.12309,2.83744 -2.81985,4.94045 0.54416,3.7738 2.10279,5.34861 5.82354,5.88394 2.35962,0.33947 4.94459,-0.69548 9.4465,-3.78208 l 2.61585,-1.79349 -0.31883,-1.84625 c -0.71152,-4.12009 1.25078,-13.47865 3.70345,-17.66228 2.14151,-3.65295 5.92573,-4.13175 9.23301,-1.1682 2.29641,2.05776 3.22451,2.11584 9.92374,0.62107 5.67716,-1.26673 13.42825,-1.42333 15.0543,-0.30417 2.59371,1.78517 2.03351,5.37841 -2.28675,14.66799 -1.49611,3.21698 -2.7202,6.09172 -2.7202,6.38831 0,0.82698 1.25467,0.96756 5.43363,0.60876 4.00008,-0.34343 5.03565,-0.81868 6.0131,-2.75955 0.27705,-0.55014 1.3551,-4.07073 2.39567,-7.82353 1.83886,-6.63185 3.3734,-10.92333 4.5688,-12.77708 0.32153,-0.49858 1.73974,-2.02706 3.1516,-3.39661 1.41184,-1.36954 4.1842,-4.34204 6.1608,-6.60556 4.17845,-4.78498 6.17862,-6.5432 9.24647,-8.12801 4.2154,-2.17757 6.4658,-2.67806 16.5672,-3.68445 l 7.16016,-0.71337 3.56796,4.59237 c 1.96236,2.52582 4.18732,5.66726 4.94435,6.981 1.30778,2.26954 2.66623,6.29853 2.66623,7.90776 0,1.01964 2.3167,4.62136 2.97255,4.62136 0.29198,0 1.05713,0.60117 1.70034,1.33593 1.96493,2.24462 3.71956,1.78058 7.29119,-1.92825 3.73996,-3.88364 4.89817,-4.57749 6.40046,-3.83437 1.36994,0.67766 1.82979,2.88445 1.82412,8.75413 -0.0108,11.84059 -2.37917,16.84646 -8.22575,17.39071 -2.68559,0.25 -4.1637,-0.33341 -4.69607,-1.85357 -0.19349,-0.55252 -0.61135,-2.66018 -0.92857,-4.6837 -1.13344,-7.23016 -2.58351,-11.29801 -4.88494,-13.70368 l -1.35588,-1.41728 -0.21578,3.64381 c -0.59041,9.97047 -2.97225,14.52978 -8.76259,16.77336 -2.25338,0.87311 -5.55653,1.18031 -6.67688,0.62097 -0.97192,-0.48523 -1.62672,-2.73854 -1.38716,-4.77345 0.38873,-3.30194 1.56942,-7.54349 2.63945,-9.48203 1.79135,-3.24534 0.56245,-4.43611 -4.11583,-3.98808 -2.80497,0.2686 -4.335,0.91823 -5.14189,2.18318 -0.22572,0.35385 -0.92876,2.52122 -1.56234,4.81641 -2.52445,9.145 -7.08649,19.66241 -8.15583,18.80257 -0.18179,-0.14618 -0.22005,-1.36649 -0.0889,-2.83634 0.21379,-2.39644 0.1766,-2.60187 -0.52333,-2.89089 -0.4144,-0.17105 -2.6226,-0.15006 -4.90711,0.0467 -6.44673,0.5554 -8.26307,0.3441 -10.67458,-1.24185 l -2.07144,-1.36229 -2.2069,1.38133 c -1.62976,1.02009 -2.87819,1.44527 -4.77389,1.62586 -1.41185,0.13454 -5.13546,0.57897 -8.27469,0.98769 -7.05516,0.91858 -7.64972,0.73151 -7.38504,-2.32373 0.11317,-1.30667 0.849,-3.50724 2.1823,-6.52672 2.49576,-5.65204 3.16589,-7.71341 3.19032,-9.81353 0.0237,-2.04547 -0.916,-3.03107 -2.89014,-3.03107 -1.75725,0 -2.75762,0.90603 -3.04183,2.75495 -0.12267,0.79803 -0.67894,2.06295 -1.23615,2.8109 -0.59552,0.7994 -2.19586,4.77889 -3.88266,9.65483 -3.16488,9.14856 -4.0753,11.15261 -4.88324,10.74924 -0.71378,-0.35637 -0.5604,-1.04227 2.44319,-10.92619 1.39306,-4.58416 2.77954,-9.57351 3.08107,-11.08742 0.49596,-2.4902 0.49748,-2.81862 0.0159,-3.44515 -1.04522,-1.35987 -9.512,0.68229 -11.32849,2.73239 -0.69747,0.78719 -1.0122,1.86879 -1.55551,5.34563 -0.89657,5.73758 -1.79578,8.75632 -3.38994,11.38021 -2.25238,3.70733 -5.15874,4.83885 -8.76886,3.41398 -2.23236,-0.88108 -3.17611,-0.84031 -4.47929,0.19353 -1.07938,0.85626 -3.77693,1.79365 -5.76697,2.00396 -0.56993,0.0603 -1.37917,0.34831 -1.79833,0.64017 -0.99482,0.69269 -2.79685,0.0741 -4.94318,-1.69683 -1.54584,-1.27546 -2.57026,-2.84748 -4.34709,-6.67069 -1.49207,-3.21049 -3.81222,-2.76598 -6.29711,1.20648 -1.30899,2.09264 -5.27666,12.17129 -6.04816,15.36353 -0.52208,2.16017 -0.29748,3.26156 1.15072,5.64257 l 1.16898,1.92197 2.97066,-0.0929 c 1.63388,-0.0511 3.15226,0.10175 3.37421,0.33976 0.22196,0.238 2.79086,0.66019 5.70867,0.93823 2.91782,0.27802 5.69019,0.68789 6.1608,0.91079 0.47062,0.2229 1.22866,0.46469 1.68453,0.53732 0.45587,0.0727 0.89226,0.38251 0.96976,0.68866 0.2213,0.87431 -6.65604,0.64464 -10.35529,-0.3458 l 2e-5,0 z m 27.11016,-25.00076 c 0.60386,-0.4755 1.48947,-1.46996 1.96804,-2.20992 0.74625,-1.15388 0.87011,-1.77868 0.87011,-4.38919 0,-3.78068 -0.80594,-9.41461 -1.65073,-11.5394 -1.32354,-3.32892 -2.90039,-1.87617 -4.32294,3.98267 -1.82439,7.51383 -1.93464,12.44347 -0.32515,14.53752 0.91908,1.19576 1.54508,1.12671 3.46067,-0.38168 l 0,0 z m 61.70799,-2.43219 c 1.78834,-0.58011 3.63659,-1.42012 4.1072,-1.86667 1.82587,-1.73251 4.44947,-9.79954 4.44947,-13.68118 0,-2.51305 -0.57343,-2.93342 -1.68651,-1.2364 -1.10889,1.6906 -2.63594,2.37216 -5.29546,2.36346 -3.94683,-0.0123 -3.90697,-1.40774 0.11642,-4.07521 1.36214,-0.90308 3.11757,-1.77078 3.90098,-1.92822 2.72229,-0.54713 3.61047,-1.12791 4.58417,-2.99756 1.18951,-2.28405 1.79991,-2.77947 2.9584,-2.40118 0.67173,0.21935 0.97505,0.6645 1.12719,1.65431 0.26472,1.72204 1.20071,2.50996 3.69397,3.10963 2.74958,0.6613 4.91936,0.17581 6.99692,-1.56568 1.28136,-1.07406 2.29773,-1.53441 3.85538,-1.74622 2.3804,-0.32371 3.36493,-1.1815 3.36493,-2.93177 0,-2.4589 -2.47226,-6.97308 -5.74613,-10.49207 -2.64884,-2.84717 -4.01483,-3.109 -11.68278,-2.2394 -9.27463,1.0518 -13.94438,2.45256 -17.44876,5.23401 -1.66269,1.31969 -5.12564,5.63078 -5.71623,7.11623 -0.26295,0.66137 -0.47809,2.2835 -0.47809,3.60476 0,3.01409 0.69781,4.02451 2.62677,3.80355 1.30296,-0.14918 1.30913,-0.14212 1.27424,1.46156 -0.0194,0.89205 -0.7604,3.67538 -1.65972,6.23428 -1.79027,5.094 -2.92581,9.2901 -2.92581,10.81158 0,1.55321 0.79591,2.58397 2.25268,2.9174 1.73499,0.3971 3.33919,0.14565 7.33077,-1.14921 z m -16.87744,-3.35311 c 1.79665,-2.02188 3.50447,-4.73476 3.51953,-5.59075 0.005,-0.29784 -0.24965,-1.24862 -0.56643,-2.11288 -0.50614,-1.38091 -0.52796,-2.0378 -0.18012,-5.42022 0.21771,-2.11688 0.31351,-4.02215 0.21291,-4.23394 -0.33415,-0.70341 -1.54313,0.54411 -2.57111,2.65305 -1.81192,3.71722 -3.88787,13.77806 -3.27307,15.86254 0.33227,1.12649 1.10751,0.81248 2.85829,-1.1578 z m 44.77216,1.01636 c 2.97222,-1.7739 3.93607,-4.339 3.93607,-10.47499 0,-3.87283 -0.64059,-10.06302 -1.04139,-10.06302 -0.63212,0 -3.43919,4.21314 -4.66767,7.00567 -2.2809,5.18489 -3.32312,8.61721 -3.34282,11.00894 -0.0158,1.91636 0.0944,2.28123 0.83748,2.77661 1.19147,0.79415 2.67009,0.70664 4.27833,-0.25321 l 0,0 z m 22.59645,-0.14054 c 1.27396,-1.30376 3.24467,-6.90809 3.24467,-9.22717 0,-1.59127 -0.11005,-1.83934 -0.94123,-2.12198 -2.53184,-0.86091 -5.28656,0.1 -6.09136,2.12492 -0.9675,2.43418 -0.4692,7.11722 0.97887,9.19949 0.87579,1.25935 1.59649,1.2657 2.80905,0.0247 l 0,0 z m -132.66409,-5.55079 c 2.20959,-2.46071 2.96655,-5.12749 2.07241,-7.30115 -0.82347,-2.00192 -4.43821,-3.01766 -5.06249,-1.42258 -0.42969,1.0979 -0.99537,4.34927 -1.26545,7.27365 -0.40268,4.35993 1.16344,4.89358 4.25553,1.45008 z m 134.82528,-8.43276 c 0.4889,-0.44552 0.74096,-1.06896 0.67513,-1.66988 -0.0904,-0.8248 -0.36166,-0.97801 -1.93936,-1.09524 -2.45384,-0.18231 -3.90868,1.39237 -2.71783,2.94171 0.59032,0.76804 3.06595,0.65825 3.98206,-0.17659 l 0,0 z m -147.93431,-9.06409 c 5.9949,-3.85576 9.34023,-8.3927 9.63847,-13.0717 0.20877,-3.27532 -0.59546,-4.53955 -2.88774,-4.53955 -2.58092,0 -4.0705,1.27931 -6.64438,5.7065 -2.63769,4.53693 -5.45075,11.24457 -5.45075,12.99708 0,1.17093 0.0607,1.21641 1.2835,0.96155 0.70593,-0.14706 2.53334,-1.07137 4.0609,-2.05388 z m -68.32144,-2.95155 c 0,-0.56142 -0.22446,-0.63961 -1.11237,-0.38752 -2.30375,0.65403 -2.54811,1.03337 -0.68453,1.06264 1.41841,0.0222 1.7969,-0.1199 1.7969,-0.67512 z m 3.08041,-0.18726 c 0,-0.24493 -0.34655,-0.43122 -0.7701,-0.41401 -0.73482,0.0298 -0.73874,0.0488 -0.0855,0.41401 0.37649,0.21048 0.72304,0.3968 0.7701,0.41401 0.0471,0.0176 0.0855,-0.16911 0.0855,-0.41401 z"
       id="path3179"
       inkscape:connector-curvature="0" />
    <path
       style="fill:#000000"
       d=""
       id="path3181"
       inkscape:connector-curvature="0" />
    <path
       style="fill:#000000"
       d="m 279.59744,321.79909 c 0.76049,-0.29671 1.08909,-0.323 1.08909,-0.0871 0,0.17932 -0.15852,0.22915 -0.6958,0.21869 -0.50898,-0.0106 -0.61459,-0.0451 -0.39329,-0.13154 z"
       id="path3183"
       inkscape:connector-curvature="0" />
    <path
       style="fill:#000000"
       d=""
       id="path3185"
       inkscape:connector-curvature="0" />
    <path
       style="fill:#000000"
       d=""
       id="path3187"
       inkscape:connector-curvature="0" />
    <path
       style="fill:#000000"
       id="path3189"
       d="m 281.18647,322.03234 c -0.1312,0.007 -0.26267,0.007 -0.39401,0.009 -0.17054,-0.0106 -0.33808,0.0123 -0.50543,0.0527 -0.19447,0.0541 -0.38593,0.12414 -0.57708,0.19517 -0.20083,0.0785 -0.40145,0.15746 -0.60134,0.23997 -0.19392,0.0873 -0.38726,0.17545 -0.58454,0.24916 -0.2138,0.0781 -0.43259,0.12819 -0.65188,0.17139 -0.15011,0.0265 -0.075,0.0141 -0.22568,0.0377 -0.0337,0.0159 -0.20666,-0.60618 -0.17286,-0.62209 l 0,0 c 0.14355,-0.0199 0.0721,-0.009 0.21455,-0.0316 0.20267,-0.0353 0.40511,-0.0758 0.60359,-0.14106 0.19384,-0.0658 0.38411,-0.14601 0.57099,-0.24008 0.20195,-0.0815 0.40268,-0.16734 0.60577,-0.2439 0.20026,-0.0815 0.40391,-0.14953 0.60826,-0.21123 0.19343,-0.0605 0.39115,-0.10333 0.5907,-0.0894 0.13241,10e-4 0.26495,10e-4 0.39729,0.009 0.0334,-0.0106 0.15517,0.60532 0.12171,0.61651 z"
       inkscape:connector-curvature="0" />
    <path
       style="fill:#000000"
       id="path3191"
       d="m 284.81675,321.87492 c -0.1953,0.0141 -0.39116,0.007 -0.58483,-0.0286 -0.20127,-0.0411 -0.3982,-0.11162 -0.59772,-0.16522 -0.0328,-0.009 -0.0656,-0.0159 -0.0984,-0.0242 -0.0207,-0.005 -0.47652,-0.0501 -0.35221,-0.0399 -0.20072,-7.6e-4 -0.39944,0.0409 -0.59807,0.0734 -0.23366,0.0508 -0.46414,0.12326 -0.69643,0.18362 -0.24751,0.064 -0.49744,0.10968 -0.74786,0.149 -0.24645,0.0377 -0.49391,0.0622 -0.74149,0.0836 -0.24102,0.0213 -0.48255,0.0305 -0.72379,0.0467 -0.21698,0.0176 -0.43191,0.0633 -0.64448,0.12096 -0.13472,0.0425 -0.0666,0.0199 -0.20408,0.0679 -0.0319,0.0215 -0.26472,-0.56657 -0.23277,-0.58798 l 0,0 c 0.14787,-0.0536 0.0732,-0.0268 0.22423,-0.0804 0.23147,-0.0682 0.4651,-0.12678 0.70198,-0.15235 0.24142,-0.0265 0.48401,-0.0272 0.72572,-0.0488 0.24039,-0.019 0.48069,-0.0407 0.72014,-0.0746 0.24005,-0.0349 0.47971,-0.0751 0.71715,-0.13331 0.24273,-0.0601 0.48353,-0.13154 0.72584,-0.19428 0.21438,-0.0331 0.42837,-0.0779 0.64414,-0.0906 0.26677,1.5e-4 0.53099,0.0124 0.7907,0.10175 0.1868,0.0538 0.37221,0.11902 0.56243,0.14917 0.19321,0.0258 0.0873,0.0159 0.28813,0.0273 0.0335,-0.0106 0.15516,0.60533 0.12171,0.61652 z"
       inkscape:connector-curvature="0" />
    <path
       style="fill:#ffffff"
       id="path3193"
       d="m 266.14586,335.21987 c -0.12455,0.0901 -0.2386,0.20123 -0.35195,0.31286 -0.16367,0.14936 -0.30125,0.33775 -0.44131,0.52163 -0.15426,0.20273 -0.29315,0.42397 -0.43497,0.64125 -0.14711,0.23404 -0.27181,0.49004 -0.39909,0.7425 -0.12239,0.25189 -0.24331,0.50492 -0.35141,0.76773 -0.11127,0.27656 -0.22181,0.55336 -0.31794,0.83948 -0.10535,0.28396 -0.18391,0.58197 -0.26207,0.87977 -0.0521,0.20243 -0.0267,0.10139 -0.0762,0.30329 -0.01,0.0455 -0.50368,-0.12449 -0.49444,-0.16998 l 0,0 c 0.0514,-0.21144 0.0251,-0.10615 0.0787,-0.31558 0.0824,-0.31147 0.16236,-0.6245 0.27269,-0.92181 0.0995,-0.30033 0.21405,-0.59089 0.33129,-0.88006 0.1129,-0.27818 0.2405,-0.54509 0.36783,-0.81238 0.13604,-0.2737 0.27143,-0.54925 0.42833,-0.80381 0.14937,-0.22628 0.29399,-0.45834 0.45426,-0.67184 0.15376,-0.2043 0.30483,-0.41494 0.48439,-0.58191 0.13444,-0.13049 0.26756,-0.26556 0.41899,-0.36212 0.0278,-0.027 0.32061,0.48394 0.29284,0.51089 z"
       inkscape:connector-curvature="0" />
    <path
       style="fill:#ffffff"
       id="path3195"
       d="m 266.03817,336.39274 c -0.57465,1.86817 -1.29867,3.65547 -2.18092,5.30793 -0.14713,-0.17831 -0.19699,0.60485 -0.3757,0.53728 -0.17058,-0.0645 -0.31561,-0.22577 -0.44068,-0.3899 -0.004,-0.005 0.0297,-0.27736 0.0279,-0.13243 -0.12564,-0.24769 -0.10303,-0.59914 -0.0695,-0.89472 0.10198,-0.81043 0.4343,-1.29164 0.79537,-1.9146 0.0978,-0.15024 0.18863,-0.31706 0.30779,-0.44161 0.0855,-0.0894 0.14785,-0.12554 0.21842,-0.22775 0.17747,-0.33122 0.39877,-0.62032 0.55928,-0.96624 0.0772,-0.28281 0.12455,-0.57943 0.17194,-0.87318 0.0569,-0.31994 0.31443,-0.46614 0.41214,-0.74647 0.1255,-0.32806 0.17127,-0.46615 0.59229,-0.10633 0.0902,0.0771 -0.0927,0.76953 -0.11872,0.87302 -0.17949,0.59486 -0.39659,1.12456 -0.77325,1.54317 -0.20164,0.1858 -0.45235,0.19067 -0.62929,0.4166 -0.16859,0.34592 -0.20076,0.42364 -0.61326,0.0236 -0.0714,-0.0693 0.0237,-0.48316 0.0289,-0.51395 0.15697,-0.57024 0.55371,-0.78041 0.95609,-0.97385 0.22461,-0.0615 0.27283,-0.2873 0.36741,-0.52663 0.0657,-0.30393 0.18239,-0.57742 0.28411,-0.86126 0.0933,-0.25429 0.17846,-0.51748 0.22931,-0.79205 0.0153,-0.0621 0.16084,-0.7782 0.20059,-0.75519 0.15739,0.0912 0.2981,0.22477 0.44716,0.33714 -0.0991,0.59768 -0.4035,1.02067 -0.78374,1.34824 -0.20542,0.0786 -0.3703,0.20692 -0.54155,0.36391 -0.25247,0.18931 -0.40292,0.44203 -0.531,0.77495 -0.13959,0.31258 -0.37021,0.52233 -0.49784,0.84256 -0.13011,0.31474 -0.30325,0.58869 -0.4992,0.83785 -0.18615,0.23073 -0.30759,0.52802 -0.45843,0.79504 -0.0154,0.0273 -0.0324,0.0533 -0.0463,0.0818 -0.0191,0.039 -0.0167,0.0439 -0.017,0.0855 -5e-5,0.005 0.004,0.0176 4.4e-4,0.0159 -0.48354,-0.16364 -0.4776,0.0324 -0.45144,-0.26222 0.063,-0.3091 0.0949,-0.62623 0.20893,-0.91326 0.0501,-0.12608 0.11371,-0.24246 0.16824,-0.36545 0.14174,-0.33552 0.28742,-0.66685 0.44415,-0.99111 0.15103,-0.37393 0.33939,-0.71497 0.53558,-1.05004 0.1904,-0.40186 0.48551,-0.62067 0.80053,-0.82082 0.19358,-0.0806 0.29562,-0.26646 0.43681,-0.43778 0.1857,-0.2466 0.43974,-0.36762 0.65201,-0.56462 0.20735,-0.1962 0.44309,-0.32546 0.60939,-0.58613 0.091,-0.0786 0.10775,-0.2718 0.19167,-0.35407 0.0109,-0.0106 -0.0177,0.0319 -0.0172,0.0501 0.001,0.0673 0.0154,0.13313 0.0232,0.19973 -0.0945,0.0658 0.0545,0.0686 0.0337,0.0861 -0.0244,0.0204 -0.058,0.009 -0.0854,0.0213 -0.13922,0.0635 -0.27159,0.1952 -0.39498,0.29622 -0.23133,0.22726 -0.40908,0.51712 -0.65834,0.71302 -0.19022,0.12996 -0.38369,0.25007 -0.5719,0.38502 -0.18914,0.13842 -0.42729,0.2913 -0.52404,0.56037 2e-4,0.22757 -0.0522,0.43434 -0.11845,0.64153 -0.0756,0.28786 -0.25859,0.50036 -0.37942,0.75835 -0.0833,0.29927 -0.18661,0.59071 -0.25223,0.89771 -0.0548,0.32505 -0.0938,0.6551 -0.15074,0.97933 -0.0983,0.33963 -0.22882,0.66025 -0.41797,0.92793 -0.14654,0.23715 -0.22028,0.53056 -0.32799,0.79714 -0.16141,0.38791 -0.25343,0.53552 -0.64282,0.3046 -0.056,-0.0333 -0.12591,-0.30828 -0.1426,-0.36424 -0.0933,-0.42548 -0.0671,-0.86727 -0.0326,-1.30097 0.0272,-0.3456 0.0227,-0.65679 0.12022,-0.98496 0.13186,-0.30491 0.22414,-0.63254 0.37158,-0.92493 0.25196,-0.27928 0.4368,-0.63464 0.65918,-0.9495 0.19529,-0.29138 0.45035,-0.49972 0.70717,-0.6875 0.15315,-0.25374 0.23481,-0.56281 0.3759,-0.8319 0.18999,-0.35601 0.46189,-0.58373 0.74138,-0.80386 0.15384,-0.1162 0.20617,-0.18541 0.28174,-0.37968 0.0964,-0.32251 0.32499,-0.51847 0.50943,-0.75068 0.11831,-0.25646 0.23542,-0.49717 0.39074,-0.7179 0.19467,-0.29811 0.54889,-0.37717 0.65891,0.0942 0.0366,0.15676 -0.0122,0.37545 -0.0367,0.52731 -0.0986,0.42751 -0.35548,0.72345 -0.54222,1.08155 -0.1255,0.26712 -0.27628,0.45705 -0.49749,0.57925 -0.31518,0.12784 -0.75601,0.0374 -0.70387,-0.52556 0.01,-0.1 0.0626,-0.18407 0.0939,-0.2761 0.25196,-0.35013 0.6272,-0.52752 0.99328,-0.54619 0.0183,0.21359 0.0953,0.43231 0.055,0.64076 -0.0155,0.0799 -0.12496,0.0277 -0.18712,0.0435 -0.20452,0.052 -0.3955,0.11532 -0.58253,0.23516 -0.10324,0.1162 -0.13486,0.28835 -0.22782,0.42378 -0.16912,0.20036 -0.37984,0.32348 -0.57759,0.46731 -0.17641,0.13101 -0.43044,0.2292 -0.48792,0.51098 -0.0574,0.3176 -0.15034,0.62386 -0.24351,0.92644 -0.0358,0.0659 -0.0678,0.1356 -0.10734,0.19774 -0.0763,0.12008 -0.10451,0.11832 -0.17538,0.22726 -0.088,0.13507 -0.15401,0.29534 -0.21895,0.44952 -0.12157,0.29763 -0.22945,0.61535 -0.27586,0.9487 0.004,0.40188 0.0108,0.58215 -0.16572,0.93955 -0.15497,0.22746 -0.40037,0.32571 -0.4877,0.62258 -0.0512,-0.10192 0.0165,0.22119 -0.01,0.17404 -0.0139,-0.0249 0.0108,-0.0834 -0.0122,-0.0906 -0.1402,-0.0452 -0.29394,0.005 -0.43144,-0.0522 -0.0305,-0.0123 0.006,-0.0831 0.01,-0.12467 0.005,-0.0831 0.01,-0.1661 0.0139,-0.24929 0.0294,-0.64771 0.241,-1.224 0.46863,-1.78759 0.17156,-0.40078 0.41613,-0.66558 0.74087,-0.83029 0.26512,-0.21144 0.55238,-0.35928 0.83069,-0.53459 0.15622,-0.0734 0.18723,-0.24134 0.2748,-0.40048 0.10208,-0.18554 0.11968,-0.18727 0.25104,-0.33318 0.29472,-0.25703 0.64912,-0.29441 0.99086,-0.35367 0.20086,0.0418 0.49107,-0.2542 0.67449,-0.22985 0.10483,0.0141 0.2045,0.0651 0.30677,0.0975 0.0362,0.0968 0.0936,0.18444 0.10842,0.2903 0.0623,0.44478 -0.36288,1.00782 -0.58437,1.28034 -0.23773,0.30693 -0.50158,0.58782 -0.72407,0.91346 -0.12225,0.13189 -0.1148,0.31544 -0.18381,0.48782 -0.0801,0.19989 -0.10059,0.19869 -0.22732,0.35626 -0.24851,0.19488 -0.45434,0.24219 -0.71386,-0.034 -0.17571,-0.18702 -0.16237,-0.73053 -0.16362,-0.98686 0.0859,-0.76569 0.42742,-1.35973 0.96151,-1.68286 0.0716,-0.0275 0.18234,-0.0786 0.25981,-0.076 0.0835,0.004 0.16555,0.0287 0.24872,0.0383 0.0153,0.002 0.0614,-0.004 0.0461,-0.004 -0.15444,-0.002 -0.19823,0.0354 -0.12673,-0.0141 0.0155,-0.0183 0.0344,-0.0332 0.0469,-0.0552 0.0497,-0.0883 0.0789,-0.19402 0.12374,-0.2867 0.11887,-0.24484 0.25615,-0.47123 0.37742,-0.71404 0.1529,-0.41309 0.43884,-0.68325 0.66964,-1.0132 0.0561,0.0243 0.18396,-0.42209 0.18537,-0.42133 0.0357,0.0192 -0.0385,0.12096 -0.006,0.15094 0.10897,0.10474 0.25038,0.13542 0.37557,0.2031 -0.37609,0.69813 -0.70851,1.43367 -1.06768,2.14635 -0.12374,0.34069 -0.35246,0.57003 -0.53943,0.84375 -0.12116,0.22136 -0.27152,0.41314 -0.42627,0.5945 -0.11669,0.26605 -0.2327,0.53434 -0.34488,0.80481 -0.0149,0.0434 -0.4868,-0.23097 -0.47189,-0.27439 l 0,0 c 0.29557,-0.69623 -0.0825,0.17782 0.14667,-0.31177 0.10155,-0.21678 0.15203,-0.47209 0.29444,-0.65687 0.14502,-0.14248 0.26752,-0.33001 0.38126,-0.51232 0.16187,-0.26712 0.37244,-0.48297 0.46366,-0.81791 0.35556,-0.76393 0.70053,-1.54353 1.16181,-2.21098 0.16733,0.0106 0.34578,-0.0455 0.50198,0.0333 0.13728,0.0693 -0.17665,0.73601 -0.2337,0.8037 -0.20661,0.32043 -0.46936,0.58058 -0.6156,0.96126 -0.12116,0.2441 -0.25735,0.46525 -0.38569,0.70231 -0.0713,0.13172 -0.12686,0.27792 -0.20492,0.40283 -0.0278,0.0444 -0.0657,0.0758 -0.0987,0.11374 -0.34215,0.29507 -0.40887,0.0238 -0.4757,0.13507 -0.38193,0.1594 -0.61302,0.64335 -0.71026,1.126 -0.008,0.27846 -0.0122,0.21506 -4.6e-4,0.45788 10e-4,0.0245 0.0231,0.0642 0.005,0.0732 -0.0493,0.025 -0.10829,-0.0159 -0.15895,0.005 -0.0384,0.0159 0.17485,0.11691 0.11872,0.0256 0.22999,-0.16011 0.16988,-0.54337 0.36021,-0.76213 0.22345,-0.35853 0.49948,-0.6632 0.74799,-0.99299 0.15107,-0.16117 0.26872,-0.34461 0.38986,-0.54406 0.0328,-0.0541 0.0574,-0.17934 0.10652,-0.15358 0.0282,0.0141 0.0454,0.0527 0.068,0.0792 0.0638,0.004 0.12781,0.009 0.19164,0.0123 0.018,0.001 -0.0366,-0.009 -0.0543,-0.004 -0.0431,0.0141 -0.0833,0.0402 -0.12455,0.0608 -0.15912,0.0797 -0.31651,0.17104 -0.48886,0.19009 -0.27021,0.0555 -0.55278,0.0533 -0.80978,0.18857 -0.0178,0.0159 -0.13585,0.10985 -0.15639,0.14512 -0.13391,0.22981 -0.19209,0.53647 -0.42072,0.65685 -0.28958,0.21284 -0.61904,0.3253 -0.8942,0.58223 -0.27289,0.0873 -0.36398,0.20111 -0.5164,0.5123 -0.19415,0.50428 -0.37195,1.02394 -0.42173,1.59043 -0.0144,0.12308 -0.0527,0.50753 -0.0809,0.52538 -0.56896,0.36002 -0.56632,0.0141 -0.50119,-0.46273 0.0969,-0.29867 0.26632,-0.63594 0.52544,-0.72131 0.008,-0.0159 0.10536,-0.15517 0.10707,-0.18731 0.01,-0.17738 -0.0353,-0.36256 10e-4,-0.54007 0.0553,-0.39146 0.15565,-0.7769 0.30467,-1.12498 0.12428,-0.29585 0.26652,-0.62545 0.49369,-0.80605 0.09,-0.29331 0.17742,-0.58943 0.23281,-0.89776 0.022,-0.0787 0.0361,-0.1617 0.0657,-0.23595 0.12008,-0.3004 0.36776,-0.47765 0.59358,-0.61515 0.16244,-0.11815 0.33779,-0.23408 0.49797,-0.32966 0.0122,-0.0159 0.022,-0.0397 0.0381,-0.0503 0.005,-0.004 0.005,0.0263 0.008,0.0199 0.0876,-0.16857 0.0864,-0.39956 0.26169,-0.53345 0.22733,-0.1778 0.45402,-0.2927 0.71735,-0.35055 0.0583,-0.0123 0.13255,-0.0719 0.17646,-0.0205 0.13418,0.15765 0.2025,0.38957 0.30374,0.58435 -0.23609,0.0633 -0.47645,0.11673 -0.69928,0.24054 -0.0146,0.002 -0.031,0.0141 -0.044,0.005 -0.0369,-0.0252 -0.10924,-0.19256 -0.1787,-0.0899 -0.001,0.002 0.11655,0.0141 0.12929,0.0141 0.18549,-0.0284 0.17306,-0.12555 0.29079,-0.32723 0.15366,-0.3135 0.36491,-0.5673 0.48845,-0.90478 0.0274,-0.1162 0.0414,-0.20936 0.0651,-0.2016 0.0288,0.009 0.041,0.0667 0.0707,0.0705 0.28714,0.0383 0.28899,-0.11938 0.16501,0.0231 -0.0259,0.0388 -0.0519,0.0774 -0.0779,0.1162 -0.0122,0.007 -0.0272,0.009 -0.0361,0.0219 -0.12171,0.17714 -0.15234,0.45439 -0.29146,0.61933 -0.0684,0.0853 -0.13011,0.18021 -0.20261,0.25977 -0.0974,0.10704 -0.20944,0.15729 -0.24277,0.3338 -0.11194,0.26681 -0.21283,0.45816 -0.41267,0.62885 -0.2319,0.17907 -0.46158,0.34769 -0.62754,0.63023 -0.19108,0.32334 -0.24906,0.74966 -0.50277,1.01384 -0.21864,0.15658 -0.44385,0.32293 -0.60426,0.57565 -0.21798,0.29204 -0.38684,0.64753 -0.64317,0.88778 -0.16766,0.21319 -0.17989,0.57869 -0.33166,0.81441 -0.11358,0.23433 -0.0401,0.54377 -0.0858,0.80624 -0.0238,0.35189 -0.0487,0.71014 0.01,1.05895 0.0219,0.0968 0.0297,0.13119 0.0297,0.13119 -0.44426,0.0432 -0.29538,0.10544 -0.2042,-0.15077 0.1316,-0.31475 0.21716,-0.66503 0.40376,-0.93785 0.16035,-0.15024 0.20415,-0.44604 0.31117,-0.65111 0.0649,-0.32768 0.0915,-0.66982 0.15313,-0.99926 0.0765,-0.35545 0.1884,-0.69707 0.29061,-1.04108 0.0721,-0.15605 0.14893,-0.30472 0.23962,-0.44404 0.0198,-0.0305 0.04,-0.0614 0.0641,-0.0859 0.008,-0.009 0.0259,0.001 0.031,-0.0106 0.0179,-0.0416 0.0216,-0.0912 0.0324,-0.13666 0.0122,-0.0358 0.0608,-0.13577 0.0663,-0.18134 0.0194,-0.16152 0.006,-0.3303 0.0508,-0.48745 0.14318,-0.39024 0.39215,-0.67236 0.69456,-0.85195 0.18809,-0.10386 0.3767,-0.26081 0.56341,-0.37677 0.26529,-0.1363 0.38296,-0.50847 0.62229,-0.70235 0.35855,-0.29324 0.7358,-0.63384 1.16083,-0.3251 0.035,0.0958 0.0877,0.18363 0.10483,0.28726 0.0337,0.20427 -0.16932,0.44612 -0.23439,0.60346 -0.18061,0.31127 -0.41112,0.51546 -0.67433,0.69528 -0.20136,0.21363 -0.44993,0.32794 -0.64436,0.5491 -0.17884,0.15552 -0.27844,0.43826 -0.49956,0.52473 -0.11236,0.0802 -0.25865,0.12907 -0.36313,0.22255 -0.12279,0.10985 -0.22949,0.26971 -0.31162,0.42824 -0.19745,0.30782 -0.36616,0.64645 -0.51761,0.99486 -0.15571,0.3146 -0.29496,0.63956 -0.43202,0.96807 -0.0641,0.14847 -0.16764,0.31059 -0.21091,0.47264 -0.0555,0.20819 -0.0675,0.43806 -0.13652,0.64195 -0.0752,0.36023 -0.0155,0.31227 -0.54346,0.15306 -0.064,-0.0192 0.0782,-0.46206 0.12401,-0.53156 0.17281,-0.29318 0.28368,-0.64978 0.50606,-0.89462 0.0621,-0.0568 0.25923,-0.32129 0.30385,-0.4053 0.0269,-0.0506 0.0433,-0.10915 0.065,-0.16381 0.0158,-0.0289 0.0314,-0.0577 0.0473,-0.0866 0.1274,-0.32974 0.29764,-0.57052 0.48538,-0.84304 0.15905,-0.41932 0.34697,-0.77258 0.6688,-1.00196 0.174,-0.14494 0.32825,-0.34116 0.53941,-0.3887 0.29744,-0.23057 0.53551,-0.54846 0.63475,-0.989 0.1691,0.018 0.34008,0.0159 0.50727,0.054 0.0346,0.007 -0.0324,0.0813 -0.0428,0.12485 -0.042,0.1728 -0.0614,0.35613 -0.11561,0.52458 -0.0605,0.30407 -0.14768,0.60216 -0.25334,0.88422 -0.0987,0.2961 -0.22047,0.57731 -0.29411,0.88781 -0.13377,0.33994 -0.24104,0.7248 -0.55371,0.843 -0.26421,0.14441 -0.59521,0.20048 -0.73488,0.5656 -0.0122,0.0289 -0.0319,0.0545 -0.0382,0.0869 -0.006,0.0388 0.0289,0.11303 -10e-4,0.12008 -0.60688,0.14107 -0.41498,0.0187 -0.28198,-0.27751 0.19861,-0.27612 0.3611,-0.39534 0.64512,-0.47031 0.0529,-0.0578 0.18252,-0.19407 0.22377,-0.26321 0.18335,-0.30716 0.29784,-0.6756 0.42533,-1.02317 0.15601,-0.53753 0.0443,-0.53159 0.58775,-0.50584 0.0521,0.002 -0.26685,0.24647 -0.0747,0.17869 -0.092,0.24071 -0.22182,0.44594 -0.38375,0.6138 -0.055,0.35314 -0.11031,0.70896 -0.20409,1.04827 -0.16711,0.38952 -0.40393,0.70681 -0.61371,1.05761 -0.15624,0.22926 -0.36356,0.35541 -0.48035,0.63615 -0.28412,0.53972 -0.63805,1.01675 -0.73853,1.68483 -0.051,0.20989 -0.0591,0.41102 0.0251,0.60666 0.003,0.0141 0.0554,0.36959 0.004,0.37082 -0.72968,0.0176 -0.51978,0.0358 -0.40531,-0.19721 0.0616,-0.12537 0.11669,-0.25575 0.17499,-0.38362 0.77576,-1.69637 1.4779,-3.4455 2.19966,-5.1811 0.0135,-0.048 0.53481,0.19222 0.52175,0.24022 z"
       inkscape:connector-curvature="0" />
    <path
       style="fill:#ffffff"
       id="path3197"
       d="m 266.29416,333.09441 c -0.3817,0.29275 -0.72665,0.66925 -1.13469,0.89937 -0.15659,0.0619 -0.18924,0.0617 -0.32058,0.18368 -0.1552,0.15059 -0.24839,0.35267 -0.33776,0.57047 -0.13377,0.29523 -0.0839,0.62907 -0.13065,0.94772 -0.065,0.29671 -0.27259,0.48447 -0.32593,0.78272 -0.0148,0.39405 -0.0202,0.78704 -0.0907,1.17266 -0.0808,0.31487 -0.15669,0.63074 -0.26333,0.93274 -0.0882,0.22029 -0.13133,0.46166 -0.19833,0.69316 -0.0108,0.0444 -0.49432,-0.14582 -0.48397,-0.19026 l 0,0 c 0.0679,-0.25108 0.1091,-0.51374 0.20717,-0.74957 0.10514,-0.26196 0.16134,-0.54629 0.23591,-0.82426 0.0825,-0.38749 0.037,-0.79708 0.0929,-1.19016 0.0703,-0.29119 0.18329,-0.51967 0.32825,-0.75555 0.0405,-0.12678 0.0109,-0.009 0.01,-0.25677 -0.001,-0.29155 0.0483,-0.57437 0.14956,-0.83491 0.12618,-0.29559 0.26156,-0.56838 0.46929,-0.77865 0.12672,-0.0984 0.23501,-0.20513 0.37721,-0.26406 0.24841,-0.12149 0.44236,-0.36286 0.6646,-0.54568 0.075,-0.0617 0.15403,-0.11444 0.23108,-0.17157 0.071,-0.0527 0.14211,-0.10527 0.21318,-0.15781 0.0292,-0.0284 0.33682,0.5084 0.30765,0.5367 z"
       inkscape:connector-curvature="0" />
    <path
       style="fill:#ffffff"
       id="path3201"
       d="m 265.86439,333.23879 c -0.27988,0.39201 -0.58455,0.7686 -0.80733,1.2217 -0.10208,0.15517 -0.13751,0.31766 -0.17906,0.50436 -0.0429,0.28468 -0.22073,0.45018 -0.34716,0.66474 -0.0794,0.12749 -0.0454,0.0679 -0.10398,0.17674 -0.0169,0.0407 -0.4596,-0.27185 -0.44261,-0.31257 l 0,0 c 0.0752,-0.14917 0.0367,-0.0845 0.11196,-0.19745 0.097,-0.1751 0.2448,-0.29252 0.29709,-0.50142 0.0641,-0.21003 0.0921,-0.43508 0.19571,-0.6255 0.22522,-0.53237 0.55254,-0.98704 0.90088,-1.38705 0.0249,-0.0344 0.39938,0.422 0.37458,0.45645 z"
       inkscape:connector-curvature="0" />
    <path
       style="fill:#ffffff"
       id="path3203"
       d="m 264.17026,335.91527 c -0.34272,0.45206 -0.80079,0.79168 -1.04025,1.35961 -0.0714,0.19906 -0.0298,0.10385 10e-4,0.17562 0.0375,0.0862 0.0377,0.13983 0.0529,0.24057 -0.0109,0.0751 -0.0109,0.15535 -0.0343,0.22523 -0.0724,0.21126 -0.35194,0.44457 -0.49061,0.61471 -0.15893,0.19649 -0.21485,0.4536 -0.27662,0.71684 -0.0343,0.23618 -0.11384,0.45859 -0.21147,0.66106 -0.10123,0.24222 -0.20753,0.47713 -0.27205,0.74137 -0.0397,-0.0123 -0.14827,0.68466 -0.16411,0.67799 -0.16508,-0.0693 -0.3228,-0.1654 -0.48421,-0.24813 0.0508,-0.41398 -0.006,-0.85604 0.0736,-1.26446 0.016,-0.0811 0.0454,-0.15676 0.0681,-0.2351 0.12523,-0.20809 0.21326,-0.44813 0.34322,-0.64912 0.11954,-0.22013 0.2785,-0.38324 0.43004,-0.56117 0.13994,-0.16558 0.2634,-0.35445 0.38356,-0.54432 0.11994,-0.17866 0.29472,-0.26344 0.43572,-0.40678 0.0247,-0.0252 0.12686,-0.18108 0.13594,-0.19452 0.11913,-0.34065 0.22215,-0.68739 0.36415,-1.01369 0.10123,-0.26923 0.27039,-0.46947 0.408,-0.702 0.141,-0.25485 0.2742,-0.49888 0.45703,-0.70794 0.1452,-0.15781 0.31284,-0.22203 0.49194,-0.27927 0.0336,-0.0185 0.23484,0.59896 0.20129,0.61748 l 0,0 c -0.11357,0.0106 -0.21613,0.0286 -0.31361,0.11426 -0.17405,0.16998 -0.27851,0.35526 -0.3999,0.58756 -0.12062,0.22184 -0.28467,0.39107 -0.37801,0.64091 -0.14742,0.36541 -0.25302,0.75451 -0.40603,1.11645 -0.14902,0.23052 -0.33296,0.50129 -0.56941,0.57107 -0.12591,0.21986 -0.2651,0.43212 -0.41761,0.62137 -0.37373,0.4624 0.0447,-0.0252 -0.16687,0.16769 -0.11073,0.10104 -0.1776,0.27686 -0.27668,0.39441 -0.004,-0.007 -0.006,-0.0256 -0.0122,-0.0203 -0.051,0.0522 -0.127,0.40024 -0.22289,0.46123 -0.13417,0.36642 -0.0309,0.94267 -0.11872,1.34612 -0.17077,0.0305 -0.34029,0.0767 -0.51229,0.0913 -0.006,6.2e-4 0.003,-0.11003 0.0155,-0.19344 0.0299,-0.1944 0.0755,-0.38326 0.13609,-0.56521 0.0801,-0.30881 0.2036,-0.58147 0.32464,-0.86368 0.079,-0.15834 0.14838,-0.32168 0.16505,-0.51489 0.0761,-0.36209 0.1617,-0.71109 0.3705,-0.98608 0.10134,-0.12431 0.19543,-0.23641 0.31078,-0.33466 0.0276,-0.0236 0.0474,-0.0631 0.078,-0.0802 0.0222,-0.0124 0.0447,0.0772 0.0425,0.0763 -0.0778,-0.23969 -0.15107,-0.45143 -0.0483,-0.75317 0.0331,-0.0919 0.0586,-0.18892 0.0991,-0.27548 0.25272,-0.53891 0.68383,-0.89436 1.05268,-1.28215 0.0247,-0.0346 0.39938,0.422 0.37457,0.45646 z"
       inkscape:connector-curvature="0" />
    <path
       style="fill:#000000"
       id="path3205"
       d="m 260.40698,346.13785 c 0.0402,0.86366 -0.0958,1.72201 -0.19222,2.57325 -0.0655,0.75901 -0.18867,0.98878 -0.84182,0.9784 -0.042,3.5e-4 -0.0839,6.9e-4 -0.12591,10e-4 -0.0487,-0.0176 0.13746,-0.91238 0.18611,-0.89525 l 0,0 c 0.0442,0.002 0.0883,0.004 0.13254,0.005 0.0386,0.002 0.14666,-0.0238 0.11588,0.007 -0.0593,0.0587 -0.15178,0.034 -0.21304,0.0896 -0.0323,0.0291 -0.0318,0.0935 -0.0433,0.1423 -0.006,0.0282 0.0765,-0.45043 0.0519,-0.42777 0.0631,-0.82574 0.18305,-1.64414 0.20679,-2.47424 0,-0.0665 0.72319,-0.0665 0.72319,0 z"
       inkscape:connector-curvature="0" />
  </g>
</svg>
